<?xml version="1.0" standalone="no"?>
<!DOCTYPE svg PUBLIC "-//W3C//DTD SVG 20010904//EN"
 "http://www.w3.org/TR/2001/REC-SVG-20010904/DTD/svg10.dtd">
<svg version="1.0" xmlns="http://www.w3.org/2000/svg"
 width="920.000000pt" height="512.000000pt" viewBox="0 0 920.000000 512.000000"
 preserveAspectRatio="xMidYMid meet">

<g transform="translate(0.000000,512.000000) scale(0.100000,-0.100000)"
fill="#d1473b" stroke="none">
<path d="M5155 4186 c-166 -34 -267 -121 -302 -261 -19 -79 -9 -147 37 -240
72 -149 181 -210 590 -332 209 -62 199 -54 151 -109 -71 -81 -71 -77 -71 -631
0 -271 3 -493 8 -493 4 0 18 9 32 20 33 26 43 25 91 -5 22 -14 44 -23 49 -20
5 3 9 202 9 486 -1 426 1 483 15 505 19 28 105 93 124 94 20 0 96 -55 126 -90
l26 -32 0 -329 c0 -353 -1 -349 50 -309 32 25 42 25 82 0 18 -11 38 -20 44
-20 8 0 11 101 10 348 -1 340 -1 348 -24 397 -13 28 -37 64 -54 82 -16 17 -27
36 -24 42 4 6 66 29 139 52 486 150 550 186 633 354 36 72 39 86 39 159 0 68
-5 90 -28 138 -49 100 -148 168 -284 194 -311 59 -519 -64 -684 -406 -24 -49
-46 -90 -49 -90 -3 0 -23 37 -43 83 -107 236 -263 384 -441 416 -75 14 -174
13 -251 -3z m230 -190 c118 -31 211 -127 290 -299 37 -80 79 -202 73 -215 -4
-12 -466 132 -552 172 -110 51 -159 111 -160 198 -1 55 22 92 76 120 70 37
188 47 273 24z m1190 3 c163 -30 215 -123 139 -246 -48 -77 -109 -103 -599
-257 -44 -13 -82 -23 -84 -20 -9 9 41 149 85 239 115 238 252 322 459 284z"/>
<path d="M2413 3685 c-17 -7 -40 -26 -50 -41 -17 -27 -18 -85 -19 -1249 0
-671 2 -1247 6 -1279 5 -47 12 -64 34 -82 l27 -24 2134 0 2135 0 32 29 33 29
3 1171 c1 644 0 1171 -4 1171 -3 0 -25 -12 -50 -26 l-44 -26 -2 -1126 -3
-1127 -2100 0 -2100 0 -3 1243 c-2 989 0 1244 10 1247 7 3 540 6 1185 7 644 2
1174 6 1178 9 3 4 -3 22 -15 41 l-20 35 -113 6 c-61 4 -587 7 -1167 7 -875 -1
-1060 -3 -1087 -15z"/>
<path d="M4250 3130 l0 -70 -33 0 c-50 0 -136 -28 -189 -62 -103 -65 -151
-151 -151 -264 1 -62 5 -81 34 -134 43 -80 104 -127 234 -179 l100 -39 3 -231
2 -231 -27 6 c-79 18 -102 26 -140 50 -23 15 -47 38 -54 51 -11 21 -9 27 18
56 58 61 67 106 33 162 -21 35 -73 65 -110 65 -43 0 -89 -31 -110 -74 -24 -51
-25 -67 -5 -133 30 -102 180 -210 328 -236 l66 -11 3 -125 3 -126 39 -3 c22
-2 42 2 46 8 4 7 5 40 2 75 -2 35 -1 88 2 118 l7 54 67 17 c155 38 251 106
304 214 29 59 33 76 33 152 0 100 -20 153 -84 223 -45 49 -100 78 -231 123
-47 16 -87 30 -90 32 -7 5 -11 272 -5 330 l6 52 42 -6 c62 -9 107 -33 107 -56
0 -10 -9 -36 -20 -58 -50 -98 -4 -180 102 -180 97 0 144 88 99 185 -37 82
-134 144 -260 167 -36 6 -69 17 -73 22 -4 6 -8 37 -8 69 l0 57 -45 0 -45 0 0
-70z m0 -306 l0 -176 -26 6 c-84 21 -177 90 -189 139 -10 38 2 90 26 121 30
38 118 80 177 85 9 1 12 -40 12 -175z m168 -498 c91 -36 130 -63 152 -107 21
-41 26 -102 11 -142 -25 -66 -110 -130 -189 -143 l-39 -6 -6 43 c-4 24 -4 109
-2 189 2 80 5 155 5 168 0 12 1 22 3 22 2 0 31 -11 65 -24z"/>
</g>
</svg>
